<svg width="22" height="23" viewBox="0 0 22 23" fill="none" xmlns="http://www.w3.org/2000/svg">
<g id="arcticons:team-fight-tactics">
<rect width="22" height="22" transform="translate(0 0.730469)" fill="#FDFCF7"/>
<path id="Vector" d="M3.27246 13.8348V16.186L10.9867 20.6396L12.8466 19.5658C11.6238 19.4209 9.42742 18.2884 9.42742 18.2884M16.1081 17.6829L18.7013 16.186V7.27784L10.9867 2.82422L3.27246 7.27784V10.5201" stroke="#9AA800" stroke-linecap="round" stroke-linejoin="round"/>
<path id="Vector_2" d="M9.36399 16.1407C4.45065 13.492 2.31299 11.8658 2.31299 9.9839C2.31299 8.98473 3.27228 8.60156 3.27228 8.60156" stroke="#9AA800" stroke-linecap="round" stroke-linejoin="round"/>
<path id="Vector_3" d="M9.42766 19.7396V10.6013H6.04241L4.8457 7.92969H10.9869H17.1281L15.9319 10.6013H12.5462V18.1666" stroke="#9AA800" stroke-linecap="round" stroke-linejoin="round"/>
<path id="Vector_4" d="M6.5414 15.9892C13.349 18.9863 16.6829 19.2072 18.3742 18.5444C20.2772 17.7992 19.8193 16.0823 18.7014 14.8393C19.9092 15.205 20.2575 15.9517 20.2575 15.9517M1.46582 11.0195C2.7629 12.3707 6.0574 14.243 6.0574 14.243" stroke="#9AA800" stroke-linecap="round" stroke-linejoin="round"/>
</g>
</svg>
