<svg width="29" height="29" viewBox="0 0 29 29" fill="none" xmlns="http://www.w3.org/2000/svg">
<path id="Vector" d="M12.5588 0.933376L0.677277 12.8149C0.460937 13.0409 0.291353 13.3073 0.178254 13.599C-0.0594181 14.1776 -0.0594181 14.8265 0.178254 15.405C0.291353 15.6967 0.460937 15.9632 0.677277 16.1892L12.5588 28.0707C12.7803 28.2922 13.0434 28.468 13.3328 28.5879C13.6223 28.7078 13.9326 28.7695 14.2459 28.7695C14.8787 28.7695 15.4856 28.5181 15.9331 28.0707C16.3806 27.6232 16.632 27.0163 16.632 26.3835C16.632 25.7507 16.3806 25.1438 15.9331 24.6963L8.09132 16.8783H26.1274C26.7576 16.8783 27.3621 16.628 27.8077 16.1823C28.2534 15.7367 28.5037 15.1323 28.5037 14.502C28.5037 13.8718 28.2534 13.2674 27.8077 12.8217C27.3621 12.3761 26.7576 12.1257 26.1274 12.1257H8.09132L15.9331 4.30771C16.1558 4.08681 16.3326 3.82399 16.4533 3.53441C16.5739 3.24484 16.636 2.93424 16.636 2.62054C16.636 2.30684 16.5739 1.99625 16.4533 1.70668C16.3326 1.4171 16.1558 1.15428 15.9331 0.933376C15.7122 0.710649 15.4494 0.533863 15.1598 0.413221C14.8702 0.29258 14.5596 0.230469 14.2459 0.230469C13.9322 0.230469 13.6216 0.29258 13.3321 0.413221C13.0425 0.533863 12.7797 0.710649 12.5588 0.933376Z" fill="black"/>
</svg>
