<svg width="30" height="29" viewBox="0 0 30 29" fill="none" xmlns="http://www.w3.org/2000/svg">
    <g id="circum:edit">
        <rect x="1.16601" y="0.66601" width="27.668" height="27.668" rx="13.834" fill="white" />
        <rect x="1.16601" y="0.66601" width="27.668" height="27.668" rx="13.834" stroke="black"
            stroke-width="1.33202" />
        <path id="Vector"
            d="M7.44948 22.6355H22.3037C22.4202 22.6355 22.532 22.5892 22.6144 22.5068C22.6968 22.4244 22.7431 22.3126 22.7431 22.1961C22.7431 22.0795 22.6968 21.9677 22.6144 21.8853C22.532 21.8029 22.4202 21.7566 22.3037 21.7566H7.44948C7.33293 21.7566 7.22115 21.8029 7.13873 21.8853C7.05631 21.9677 7.01001 22.0795 7.01001 22.1961C7.01001 22.3126 7.05631 22.4244 7.13873 22.5068C7.22115 22.5892 7.33293 22.6355 7.44948 22.6355ZM12.8655 19.3325C13.2366 19.2281 13.5753 19.0316 13.85 18.7611L22.2351 10.376C22.5223 10.0877 22.6835 9.69739 22.6835 9.29049C22.6835 8.8836 22.5223 8.49328 22.2351 8.205L21.4089 7.38758C21.1163 7.1087 20.7276 6.95312 20.3234 6.95312C19.9192 6.95312 19.5305 7.1087 19.2379 7.38758L10.8528 15.7639C10.5824 16.0372 10.3884 16.3767 10.2902 16.7483L9.63982 19.1742C9.60924 19.2851 9.60858 19.402 9.63792 19.5132C9.66725 19.6244 9.72553 19.7258 9.80682 19.8071C9.93138 19.9292 10.0983 19.9984 10.2727 20.0005L12.8655 19.3325ZM13.2259 18.1371C13.0638 18.302 12.8605 18.4204 12.637 18.4799L11.7844 18.7084L10.9055 17.8295L11.134 16.9769C11.1947 16.7539 11.3129 16.5509 11.4768 16.388L11.8108 16.0628L13.5599 17.8119L13.2259 18.1371ZM14.184 17.1878L12.4349 15.4387L18.3502 9.52341L20.0993 11.2725L14.184 17.1878ZM21.6111 9.76073L20.7233 10.6485L18.9742 8.89936L19.862 8.00284C19.9856 7.87939 20.1531 7.81005 20.3278 7.81005C20.5025 7.81005 20.67 7.87939 20.7936 8.00284L21.6111 8.82905C21.7337 8.9531 21.8024 9.12048 21.8024 9.29489C21.8024 9.4693 21.7337 9.63668 21.6111 9.76073Z"
            fill="black" />
    </g>
</svg>