<svg width="28" height="29" viewBox="0 0 28 29" fill="none" xmlns="http://www.w3.org/2000/svg">
<g id="ep:place">
<path id="Vector" d="M14 14.9844C15.3924 14.9844 16.7277 14.4313 17.7123 13.4467C18.6969 12.4621 19.25 11.1268 19.25 9.73438C19.25 8.34199 18.6969 7.00663 17.7123 6.02206C16.7277 5.0375 15.3924 4.48438 14 4.48438C12.6076 4.48438 11.2723 5.0375 10.2877 6.02206C9.30312 7.00663 8.75 8.34199 8.75 9.73438C8.75 11.1268 9.30312 12.4621 10.2877 13.4467C11.2723 14.4313 12.6076 14.9844 14 14.9844ZM14 16.7344C12.1435 16.7344 10.363 15.9969 9.05025 14.6841C7.7375 13.3714 7 11.5909 7 9.73438C7 7.87786 7.7375 6.09738 9.05025 4.78463C10.363 3.47187 12.1435 2.73438 14 2.73438C15.8565 2.73438 17.637 3.47187 18.9497 4.78463C20.2625 6.09738 21 7.87786 21 9.73438C21 11.5909 20.2625 13.3714 18.9497 14.6841C17.637 15.9969 15.8565 16.7344 14 16.7344Z" fill="white"/>
<path id="Vector_2" d="M14 14.9844C14.2321 14.9844 14.4546 15.0766 14.6187 15.2407C14.7828 15.4048 14.875 15.6273 14.875 15.8594V22.8594C14.875 23.0914 14.7828 23.314 14.6187 23.4781C14.4546 23.6422 14.2321 23.7344 14 23.7344C13.7679 23.7344 13.5454 23.6422 13.3813 23.4781C13.2172 23.314 13.125 23.0914 13.125 22.8594V15.8594C13.125 15.6273 13.2172 15.4048 13.3813 15.2407C13.5454 15.0766 13.7679 14.9844 14 14.9844Z" fill="white"/>
<path id="Vector_3" d="M10.5 18.7344V20.5106C7.37625 21.0111 5.25 22.0926 5.25 22.8609C5.25 23.8916 9.0755 25.4859 14 25.4859C18.9245 25.4859 22.75 23.8916 22.75 22.8609C22.75 22.0909 20.6238 21.0111 17.5 20.5106V18.7344C21.5775 19.3346 24.5 20.9569 24.5 22.8609C24.5 25.2759 19.7995 27.2359 14 27.2359C8.2005 27.2359 3.5 25.2759 3.5 22.8609C3.5 20.9551 6.4225 19.3346 10.5 18.7344Z" fill="white"/>
</g>
</svg>
