<svg width="47" height="48" viewBox="0 0 47 48" fill="none" xmlns="http://www.w3.org/2000/svg">
<g id="frame">
<rect y="0.769531" width="46.2692" height="46.2692" rx="23.1346" fill="black" fill-opacity="0.05"/>
<path id="Vector" d="M23 18.1172C22.7376 18.1172 22.4778 18.1689 22.2354 18.2693C21.993 18.3697 21.7727 18.5169 21.5872 18.7024C21.4017 18.8879 21.2545 19.1082 21.1541 19.3506C21.0537 19.593 21.002 19.8528 21.002 20.1152C21.002 20.3776 21.0537 20.6374 21.1541 20.8798C21.2545 21.1222 21.4017 21.3425 21.5872 21.528C21.7727 21.7135 21.993 21.8607 22.2354 21.9611C22.4778 22.0615 22.7376 22.1132 23 22.1132C23.5299 22.1132 24.0381 21.9027 24.4128 21.528C24.7875 21.1533 24.998 20.6451 24.998 20.1152C24.998 19.5853 24.7875 19.0771 24.4128 18.7024C24.0381 18.3277 23.5299 18.1172 23 18.1172ZM27.5 19.1152C27.1022 19.1152 26.7206 19.2732 26.4393 19.5545C26.158 19.8358 26 20.2174 26 20.6152C26 21.013 26.158 21.3945 26.4393 21.6758C26.7206 21.9572 27.1022 22.1152 27.5 22.1152C27.8978 22.1152 28.2794 21.9572 28.5607 21.6758C28.842 21.3945 29 21.013 29 20.6152C29 20.2174 28.842 19.8358 28.5607 19.5545C28.2794 19.2732 27.8978 19.1152 27.5 19.1152ZM18.5 19.1152C18.1022 19.1152 17.7206 19.2732 17.4393 19.5545C17.158 19.8358 17 20.2174 17 20.6152C17 21.013 17.158 21.3945 17.4393 21.6758C17.7206 21.9572 18.1022 22.1152 18.5 22.1152C18.8978 22.1152 19.2794 21.9572 19.5607 21.6758C19.842 21.3945 20 21.013 20 20.6152C20 20.2174 19.842 19.8358 19.5607 19.5545C19.2794 19.2732 18.8978 19.1152 18.5 19.1152ZM20 24.1082C20.0018 23.8442 20.108 23.5916 20.2954 23.4056C20.4827 23.2196 20.736 23.1152 21 23.1152H25C25.2652 23.1152 25.5196 23.2205 25.7071 23.4081C25.8946 23.5956 26 23.85 26 24.1152V27.1152C26.0003 27.4299 25.951 27.7428 25.854 28.0422C25.6326 28.7209 25.1764 29.2984 24.5675 29.6711C23.9586 30.0437 23.2368 30.1871 22.5316 30.0755C21.8265 29.9638 21.1843 29.6044 20.7203 29.0619C20.2563 28.5193 20.0009 27.8291 20 27.1152V24.1082ZM19 24.1152C19 23.7502 19.097 23.4092 19.268 23.1152H17C16.7348 23.1152 16.4804 23.2205 16.2929 23.4081C16.1054 23.5956 16 23.85 16 24.1152V26.6152C15.9999 27.0245 16.1002 27.4276 16.2923 27.789C16.4843 28.1505 16.7622 28.4593 17.1014 28.6882C17.4407 28.9172 17.831 29.0594 18.2381 29.1023C18.6451 29.1451 19.0565 29.0874 19.436 28.9342C19.1488 28.3705 18.9994 27.7468 19 27.1142V24.1152ZM27 24.1152V27.1152C27 27.7702 26.843 28.3882 26.564 28.9342C26.9435 29.0874 27.3549 29.1451 27.7619 29.1023C28.169 29.0594 28.5593 28.9172 28.8986 28.6882C29.2378 28.4593 29.5157 28.1505 29.7077 27.789C29.8998 27.4276 30.0001 27.0245 30 26.6152V24.1152C30 23.85 29.8946 23.5956 29.7071 23.4081C29.5196 23.2205 29.2652 23.1152 29 23.1152H26.732C26.902 23.4092 27 23.7502 27 24.1152Z" fill="#0213A6"/>
</g>
</svg>
