<svg width="25" height="25" viewBox="0 0 25 25" fill="none" xmlns="http://www.w3.org/2000/svg">
<g id="iconamoon:profile-bold">
<g id="Group">
<path id="Vector" d="M4.5 18.5C4.5 17.4391 4.92143 16.4217 5.67157 15.6716C6.42172 14.9214 7.43913 14.5 8.5 14.5H16.5C17.5609 14.5 18.5783 14.9214 19.3284 15.6716C20.0786 16.4217 20.5 17.4391 20.5 18.5C20.5 19.0304 20.2893 19.5391 19.9142 19.9142C19.5391 20.2893 19.0304 20.5 18.5 20.5H6.5C5.96957 20.5 5.46086 20.2893 5.08579 19.9142C4.71071 19.5391 4.5 19.0304 4.5 18.5Z" stroke="black" stroke-width="2.5" stroke-linejoin="round"/>
<path id="Vector_2" d="M12.5 10.5C14.1569 10.5 15.5 9.15685 15.5 7.5C15.5 5.84315 14.1569 4.5 12.5 4.5C10.8431 4.5 9.5 5.84315 9.5 7.5C9.5 9.15685 10.8431 10.5 12.5 10.5Z" stroke="black" stroke-width="2.5"/>
</g>
</g>
</svg>
