<svg width="24" height="25" viewBox="0 0 24 25" fill="none" xmlns="http://www.w3.org/2000/svg">
<g id="Interface / Log_Out">
<path id="Vector" d="M12 15.5L15 12.5M15 12.5L12 9.5M15 12.5H4M9 7.74859V7.7002C9 6.58009 9 6.01962 9.21799 5.5918C9.40973 5.21547 9.71547 4.90973 10.0918 4.71799C10.5196 4.5 11.0801 4.5 12.2002 4.5H16.8002C17.9203 4.5 18.4796 4.5 18.9074 4.71799C19.2837 4.90973 19.5905 5.21547 19.7822 5.5918C20 6.0192 20 6.57899 20 7.69691V17.3036C20 18.4215 20 18.9805 19.7822 19.4079C19.5905 19.7842 19.2837 20.0905 18.9074 20.2822C18.48 20.5 17.921 20.5 16.8031 20.5H12.1969C11.079 20.5 10.5192 20.5 10.0918 20.2822C9.71547 20.0905 9.40973 19.7839 9.21799 19.4076C9 18.9798 9 18.4201 9 17.3V17.25" stroke="black" stroke-width="2" stroke-linecap="round" stroke-linejoin="round"/>
</g>
</svg>
