<svg width="25" height="25" viewBox="0 0 25 25" fill="none" xmlns="http://www.w3.org/2000/svg">
<g id="mingcute:notification-line" clip-path="url(#clip0_1447_2156)">
<g id="Group">
<path id="Vector" fill-rule="evenodd" clip-rule="evenodd" d="M5.85003 9.5C5.85003 7.64348 6.58753 5.86301 7.90028 4.55025C9.21303 3.2375 10.9935 2.5 12.85 2.5C14.7065 2.5 16.487 3.2375 17.7998 4.55025C19.1125 5.86301 19.85 7.64348 19.85 9.5V13.264L21.672 16.908C21.7559 17.0757 21.7955 17.2621 21.7871 17.4494C21.7787 17.6368 21.7225 17.8188 21.6239 17.9783C21.5253 18.1379 21.3876 18.2695 21.2238 18.3608C21.06 18.4521 20.8755 18.5 20.688 18.5H16.724C16.5016 19.3582 16.0005 20.1183 15.2993 20.6609C14.5981 21.2035 13.7366 21.4979 12.85 21.4979C11.9634 21.4979 11.1019 21.2035 10.4008 20.6609C9.6996 20.1183 9.19847 19.3582 8.97603 18.5H5.01203C4.82451 18.5 4.64009 18.4521 4.47629 18.3608C4.3125 18.2695 4.17477 18.1379 4.07617 17.9783C3.97758 17.8188 3.9214 17.6368 3.91298 17.4494C3.90455 17.2621 3.94415 17.0757 4.02803 16.908L5.85003 13.264V9.5ZM11.118 18.5C11.2936 18.804 11.546 19.0565 11.8501 19.232C12.1541 19.4075 12.499 19.4999 12.85 19.4999C13.2011 19.4999 13.546 19.4075 13.85 19.232C14.154 19.0565 14.4065 18.804 14.582 18.5H11.118ZM12.85 4.5C11.5239 4.5 10.2522 5.02678 9.31449 5.96447C8.37681 6.90215 7.85003 8.17392 7.85003 9.5V13.264C7.85001 13.5743 7.77777 13.8804 7.63903 14.158L6.46903 16.5H19.232L18.062 14.158C17.923 13.8805 17.8504 13.5744 17.85 13.264V9.5C17.85 8.17392 17.3232 6.90215 16.3856 5.96447C15.4479 5.02678 14.1761 4.5 12.85 4.5Z" fill="white"/>
</g>
</g>
<defs>
<clipPath id="clip0_1447_2156">
<rect width="24" height="24" fill="white" transform="translate(0.850098 0.5)"/>
</clipPath>
</defs>
</svg>
