<svg width="48" height="48" viewBox="0 0 48 48" fill="none" xmlns="http://www.w3.org/2000/svg">
<g id="octicon:x-16">
<rect width="47.9408" height="48.0015" rx="9.57624" fill="#FF0000"/>
<path id="Vector" d="M10.2772 10.3421C10.726 9.8938 11.3345 9.64198 11.9689 9.64198C12.6033 9.64198 13.2118 9.8938 13.6607 10.3421L23.9388 20.6203L34.217 10.3421C34.5096 10.027 34.8818 9.79661 35.2944 9.67527C35.7069 9.55393 36.1446 9.54611 36.5612 9.65264C36.9779 9.75917 37.358 9.97609 37.6617 10.2806C37.9654 10.585 38.1813 10.9658 38.2868 11.3827C38.3931 11.7989 38.3855 12.236 38.2648 12.6482C38.144 13.0604 37.9146 13.4326 37.6005 13.7256L27.3223 24.0038L37.6005 34.282C37.9156 34.5746 38.146 34.9468 38.2674 35.3593C38.3887 35.7719 38.3965 36.2095 38.29 36.6262C38.1835 37.0428 37.9665 37.423 37.6621 37.7267C37.3576 38.0304 36.9768 38.2463 36.5599 38.3517C36.1438 38.4581 35.7066 38.4505 35.2944 38.3297C34.8822 38.209 34.5101 37.9795 34.217 37.6655L23.9388 27.3873L13.6607 37.6655C13.2069 38.0889 12.6065 38.3195 11.986 38.3088C11.3655 38.2981 10.7734 38.0468 10.3346 37.608C9.8958 37.1692 9.64455 36.5771 9.63383 35.9566C9.62311 35.3361 9.85376 34.7357 10.2772 34.282L20.5553 24.0038L10.2772 13.7256C9.82884 13.2767 9.57703 12.6683 9.57703 12.0339C9.57703 11.3995 9.82884 10.791 10.2772 10.3421Z" fill="white"/>
</g>
</svg>
