<svg width="15" height="10" viewBox="0 0 15 10" fill="none" xmlns="http://www.w3.org/2000/svg">
<path id="Vector" fill-rule="evenodd" clip-rule="evenodd" d="M7.6001 0.599609C7.49401 0.599609 7.39227 0.641752 7.31726 0.716767C7.24224 0.791781 7.2001 0.893523 7.2001 0.999609C7.2001 1.1057 7.24224 1.20744 7.31726 1.28245C7.39227 1.35747 7.49401 1.39961 7.6001 1.39961H14.6001C14.7062 1.39961 14.8079 1.35747 14.8829 1.28245C14.958 1.20744 15.0001 1.1057 15.0001 0.999609C15.0001 0.893523 14.958 0.791781 14.8829 0.716767C14.8079 0.641752 14.7062 0.599609 14.6001 0.599609H7.6001ZM7.6001 2.59961C7.54757 2.59961 7.49555 2.60996 7.44702 2.63006C7.39849 2.65016 7.3544 2.67962 7.31726 2.71677C7.28011 2.75391 7.25065 2.79801 7.23055 2.84654C7.21044 2.89507 7.2001 2.94708 7.2001 2.99961C7.2001 3.05214 7.21044 3.10415 7.23055 3.15268C7.25065 3.20121 7.28011 3.24531 7.31726 3.28245C7.3544 3.3196 7.39849 3.34906 7.44702 3.36916C7.49555 3.38926 7.54757 3.39961 7.6001 3.39961H14.6001C14.7062 3.39961 14.8079 3.35747 14.8829 3.28245C14.958 3.20744 15.0001 3.1057 15.0001 2.99961C15.0001 2.89352 14.958 2.79178 14.8829 2.71677C14.8079 2.64175 14.7062 2.59961 14.6001 2.59961H7.6001ZM7.2001 4.99961C7.2001 4.77961 7.3801 4.59961 7.6001 4.59961H14.6001C14.7062 4.59961 14.8079 4.64175 14.8829 4.71677C14.958 4.79178 15.0001 4.89352 15.0001 4.99961C15.0001 5.1057 14.958 5.20744 14.8829 5.28245C14.8079 5.35747 14.7062 5.39961 14.6001 5.39961H7.6001C7.54757 5.39961 7.49555 5.38926 7.44702 5.36916C7.39849 5.34906 7.3544 5.3196 7.31726 5.28245C7.28011 5.24531 7.25065 5.20121 7.23055 5.15268C7.21044 5.10415 7.2001 5.05214 7.2001 4.99961ZM7.6001 6.59961C7.49401 6.59961 7.39227 6.64175 7.31726 6.71677C7.24224 6.79178 7.2001 6.89352 7.2001 6.99961C7.2001 7.1057 7.24224 7.20744 7.31726 7.28245C7.39227 7.35747 7.49401 7.39961 7.6001 7.39961H14.6001C14.7062 7.39961 14.8079 7.35747 14.8829 7.28245C14.958 7.20744 15.0001 7.1057 15.0001 6.99961C15.0001 6.89352 14.958 6.79178 14.8829 6.71677C14.8079 6.64175 14.7062 6.59961 14.6001 6.59961H7.6001ZM7.2001 8.99961C7.2001 8.77961 7.3801 8.59961 7.6001 8.59961H14.6001C14.7062 8.59961 14.8079 8.64175 14.8829 8.71677C14.958 8.79178 15.0001 8.89352 15.0001 8.99961C15.0001 9.1057 14.958 9.20744 14.8829 9.28245C14.8079 9.35747 14.7062 9.39961 14.6001 9.39961H7.6001C7.49401 9.39961 7.39227 9.35747 7.31726 9.28245C7.24224 9.20744 7.2001 9.1057 7.2001 8.99961ZM2.6001 6.74961L5.1001 3.49961H0.100098L2.6001 6.74961Z" fill="black"/>
</svg>
