<svg width="24" height="24" viewBox="0 0 24 24" fill="none" xmlns="http://www.w3.org/2000/svg">
<g id="ri:open-arm-fill">
<path id="Vector" d="M12 12C10.6739 12 9.4021 11.4732 8.46442 10.5355C7.52674 9.59785 6.99995 8.32608 6.99995 7C6.99995 5.67392 7.52674 4.40215 8.46442 3.46447C9.4021 2.52678 10.6739 2 12 2C13.326 2 14.5978 2.52678 15.5355 3.46447C16.4732 4.40215 17 5.67392 17 7C17 8.32608 16.4732 9.59785 15.5355 10.5355C14.5978 11.4732 13.326 12 12 12ZM18 17V22H16V17C15.9996 14.8876 16.6074 12.8198 17.7508 11.0436C18.8943 9.2675 20.5249 7.85814 22.448 6.984L23.275 8.804C21.7017 9.51958 20.3676 10.6729 19.4322 12.1263C18.4968 13.5797 17.9996 15.2716 18 17ZM7.99995 17V22H5.99995V17C6.00019 15.2719 5.50301 13.5803 4.56781 12.1271C3.6326 10.6739 2.29889 9.52066 0.725952 8.805L1.55295 6.984C3.47564 7.85849 5.10596 9.26796 6.24918 11.0441C7.39239 12.8201 8.00019 14.8878 7.99995 17Z" fill="#929284"/>
</g>
</svg>
