<svg width="16" height="16" viewBox="0 0 16 16" fill="none" xmlns="http://www.w3.org/2000/svg">
<path id="Mask" fill-rule="evenodd" clip-rule="evenodd" d="M2.45833 7.20833C2.45833 4.58871 4.58871 2.45833 7.20833 2.45833C9.82796 2.45833 11.9583 4.58871 11.9583 7.20833C11.9583 9.82796 9.82796 11.9583 7.20833 11.9583C4.58871 11.9583 2.45833 9.82796 2.45833 7.20833ZM14.893 13.7736L12.2053 11.0851C13.039 10.0132 13.5417 8.66975 13.5417 7.20833C13.5417 3.71629 10.7004 0.875 7.20833 0.875C3.71629 0.875 0.875 3.71629 0.875 7.20833C0.875 10.7004 3.71629 13.5417 7.20833 13.5417C8.66975 13.5417 10.0132 13.039 11.0851 12.2053L13.7736 14.893C13.928 15.0474 14.1307 15.125 14.3333 15.125C14.536 15.125 14.7387 15.0474 14.893 14.893C15.2026 14.5835 15.2026 14.0832 14.893 13.7736Z" fill="black"/>
</svg>
