<svg width="25" height="25" viewBox="0 0 25 25" fill="none" xmlns="http://www.w3.org/2000/svg">
<g id="solar:phone-bold-duotone">
<path id="Vector" fill-rule="evenodd" clip-rule="evenodd" d="M16.5999 13.858L17.0559 13.405C17.6859 12.779 18.6669 12.65 19.4729 13.088L21.3829 14.127C22.6099 14.794 22.8809 16.429 21.9219 17.382L20.5019 18.794C20.1399 19.154 19.6919 19.416 19.1759 19.464C17.9839 19.575 15.5309 19.515 12.6369 17.821L16.5999 13.858ZM10.6899 7.982L10.9769 7.696C11.6839 6.994 11.7509 5.866 11.1339 5.042L9.87388 3.359C9.10988 2.339 7.63488 2.204 6.75988 3.074L5.18988 4.634C4.75688 5.066 4.46688 5.624 4.50188 6.244C4.56688 7.384 4.95488 9.464 6.65088 12.02L10.6899 7.982Z" fill="#2AB41E"/>
<path id="Vector_2" opacity="0.6" d="M12.5629 11.996C9.61688 9.06696 10.6829 7.98796 10.6899 7.98096L6.65088 12.021C7.31788 13.025 8.18588 14.102 9.31488 15.225C10.4549 16.359 11.5749 17.2 12.6369 17.821L16.5999 13.859C16.5999 13.859 15.5179 14.935 12.5629 11.997" fill="black"/>
</g>
</svg>
