<svg width="47" height="47" viewBox="0 0 47 47" fill="none" xmlns="http://www.w3.org/2000/svg">
<g id="frame">
<rect y="0.269531" width="46.2692" height="46.2692" rx="23.1346" fill="black" fill-opacity="0.05"/>
<path id="Vector" d="M23 17.6172C22.7376 17.6172 22.4778 17.6689 22.2354 17.7693C21.993 17.8697 21.7727 18.0169 21.5872 18.2024C21.4017 18.3879 21.2545 18.6082 21.1541 18.8506C21.0537 19.093 21.002 19.3528 21.002 19.6152C21.002 19.8776 21.0537 20.1374 21.1541 20.3798C21.2545 20.6222 21.4017 20.8425 21.5872 21.028C21.7727 21.2135 21.993 21.3607 22.2354 21.4611C22.4778 21.5615 22.7376 21.6132 23 21.6132C23.5299 21.6132 24.0381 21.4027 24.4128 21.028C24.7875 20.6533 24.998 20.1451 24.998 19.6152C24.998 19.0853 24.7875 18.5771 24.4128 18.2024C24.0381 17.8277 23.5299 17.6172 23 17.6172ZM27.5 18.6152C27.1022 18.6152 26.7206 18.7732 26.4393 19.0545C26.158 19.3358 26 19.7174 26 20.1152C26 20.513 26.158 20.8945 26.4393 21.1758C26.7206 21.4572 27.1022 21.6152 27.5 21.6152C27.8978 21.6152 28.2794 21.4572 28.5607 21.1758C28.842 20.8945 29 20.513 29 20.1152C29 19.7174 28.842 19.3358 28.5607 19.0545C28.2794 18.7732 27.8978 18.6152 27.5 18.6152ZM18.5 18.6152C18.1022 18.6152 17.7206 18.7732 17.4393 19.0545C17.158 19.3358 17 19.7174 17 20.1152C17 20.513 17.158 20.8945 17.4393 21.1758C17.7206 21.4572 18.1022 21.6152 18.5 21.6152C18.8978 21.6152 19.2794 21.4572 19.5607 21.1758C19.842 20.8945 20 20.513 20 20.1152C20 19.7174 19.842 19.3358 19.5607 19.0545C19.2794 18.7732 18.8978 18.6152 18.5 18.6152ZM20 23.6082C20.0018 23.3442 20.108 23.0916 20.2954 22.9056C20.4827 22.7196 20.736 22.6152 21 22.6152H25C25.2652 22.6152 25.5196 22.7205 25.7071 22.9081C25.8946 23.0956 26 23.35 26 23.6152V26.6152C26.0003 26.9299 25.951 27.2428 25.854 27.5422C25.6326 28.2209 25.1764 28.7984 24.5675 29.1711C23.9586 29.5437 23.2368 29.6871 22.5316 29.5755C21.8265 29.4638 21.1843 29.1044 20.7203 28.5619C20.2563 28.0193 20.0009 27.3291 20 26.6152V23.6082ZM19 23.6152C19 23.2502 19.097 22.9092 19.268 22.6152H17C16.7348 22.6152 16.4804 22.7205 16.2929 22.9081C16.1054 23.0956 16 23.35 16 23.6152V26.1152C15.9999 26.5245 16.1002 26.9276 16.2923 27.289C16.4843 27.6505 16.7622 27.9593 17.1014 28.1882C17.4407 28.4172 17.831 28.5594 18.2381 28.6023C18.6451 28.6451 19.0565 28.5874 19.436 28.4342C19.1488 27.8705 18.9994 27.2468 19 26.6142V23.6152ZM27 23.6152V26.6152C27 27.2702 26.843 27.8882 26.564 28.4342C26.9435 28.5874 27.3549 28.6451 27.7619 28.6023C28.169 28.5594 28.5593 28.4172 28.8986 28.1882C29.2378 27.9593 29.5157 27.6505 29.7077 27.289C29.8998 26.9276 30.0001 26.5245 30 26.1152V23.6152C30 23.35 29.8946 23.0956 29.7071 22.9081C29.5196 22.7205 29.2652 22.6152 29 22.6152H26.732C26.902 22.9092 27 23.2502 27 23.6152Z" fill="#0213A6"/>
</g>
</svg>
