<svg width="25" height="25" viewBox="0 0 25 25" fill="none" xmlns="http://www.w3.org/2000/svg">
<g id="subway:world-1" clip-path="url(#clip0_917_1260)">
<path id="Vector" d="M4.89688 5.87187C4.67656 5.92344 4.81719 5.91406 4.63437 5.9375C3.85156 6.10625 4.43281 6.25625 4.89688 5.87187ZM18.6641 6.18594C18.7203 6.14844 18.9172 5.95625 18.3031 5.76875C18.3406 5.96094 18.1766 5.94219 18.1766 6.05C18.6313 6.4625 18.8188 7.17969 19.4 7.32969C19.5125 6.81406 18.8844 6.56094 18.6641 6.18594ZM4.47969 5.72188C4.55 6.13906 4.86406 5.28125 4.86875 4.97656C4.74687 5.04688 4.625 5.11719 4.49844 5.17344C4.79375 5.32344 4.53594 5.48281 4.21719 5.72188C3.57031 6.52813 4.82188 5.09375 4.47969 5.72188ZM12.5 0.5C5.87188 0.5 0.5 5.87188 0.5 12.5C0.5 19.1234 5.87188 24.5 12.5 24.5C19.1281 24.5 24.5 19.1234 24.5 12.5C24.5 5.87188 19.1281 0.5 12.5 0.5ZM12.8187 4.52188L12.875 4.54062C12.65 4.83125 14.0469 5.67969 13.0438 5.75C12.1063 6.01719 13.4375 5.50625 12.7109 5.59531C13.0953 5.06094 12.4062 5.05156 12.8187 4.52188ZM7.12812 5.29062C6.79062 5.00937 5.73125 5.675 6.10156 5.51562C7.02031 5.15469 6.1625 5.55312 6.37813 5.98438C6.18125 6.39219 6.3125 5.58125 5.825 6.06406C5.47344 6.14375 4.61094 6.94062 4.71875 6.69687C4.69063 7.07656 3.69219 7.52656 3.55625 8.15937C3.22812 9.03594 3.47656 8.12656 3.41563 7.78437C2.94688 7.18906 2.09375 8.79219 2.34688 9.425C2.77344 8.675 2.74063 9.34531 2.43125 9.67813C2.74531 10.2547 2.14531 11.0047 2.74062 11.4312C3.00312 11.4922 3.52813 10.55 3.29844 11.5297C3.45781 10.6813 3.73906 11.7313 4.19375 11.4969C4.22188 11.9422 4.49844 11.7359 4.55937 12.275C5.31875 12.2188 6.0125 13.5031 5.10781 13.7469C5.24375 13.7094 5.51094 13.9484 5.82031 13.7656C6.34531 14.1828 7.72813 14.2344 7.76562 15.2656C6.81406 15.7203 7.53125 16.9672 6.70625 17.4125C5.75937 17.2719 6.38281 18.5797 5.98438 18.4297C6.14375 19.3719 5.02813 18.3078 5.45938 18.8281C6.25156 19.3156 5.1125 19.2172 5.46875 19.5734C5.07031 19.4891 5.71719 20.3141 5.825 20.6188C6.39687 21.5469 5.33281 20.4125 5.01875 20.1031C4.71875 19.5031 4.01094 18.3547 3.81406 17.4125C3.70156 16.0437 2.64219 15.125 2.39844 13.7891C2.15469 13.0437 3.06875 11.8484 2.57656 11.4312C2.15 11.0984 2.32344 9.95938 2.07031 9.35938C2.70312 6.61719 4.71406 4.30625 7.12812 2.9375C6.87969 3.12031 8.54844 2.46406 8.35625 2.62344C8.30469 2.74062 9.33125 2.17813 9.95 2.09375C9.88438 2.10312 8.34219 2.65625 8.76875 2.58125C8.10781 2.90469 8.70312 2.72188 9.03125 2.55781C8.375 3.04063 7.86875 2.90469 7.12344 3.33125C6.37344 3.52813 6.52812 4.30625 5.99375 4.69531C6.30781 4.75156 7.09531 3.88437 7.55469 3.57969C8.60938 3.06875 7.02031 4.50781 8.02344 3.88906C7.68594 4.20313 7.75625 4.70469 7.55 4.84531C7.44687 4.81719 7.95781 5.08906 7.12812 5.29062ZM8.76875 3.13438C8.66094 3.27969 8.51094 3.59375 8.42188 3.40156C8.3 3.4625 8.25313 3.725 8.02344 3.51406C8.15938 3.41563 8.3 3.18125 8.03281 3.32656C8.15469 3.19531 9.24219 2.825 9.18125 2.68437C9.37344 2.5625 9.35469 2.50156 9.13437 2.57656C9.02187 2.53906 9.40156 2.22031 9.90781 2.17812C9.97812 2.17812 10.0063 2.225 9.87969 2.21094C9.11563 2.44531 9.44375 2.37969 9.95938 2.21094C9.7625 2.32344 9.62656 2.35625 9.59375 2.40781C10.1094 2.22031 9.56562 2.54375 9.68281 2.52031C9.5375 2.59531 9.70625 2.61875 9.425 2.72656C9.47656 2.68438 8.96563 3.03125 9.27031 2.92812C8.975 3.20937 8.84375 3.21406 8.76875 3.13438ZM9.21875 3.80469C9.22812 3.35469 9.875 3.06875 9.79531 3.04531C10.5922 2.67031 9.51875 3.05938 10.1469 2.72188C10.3813 2.69844 10.8781 1.94844 11.5672 1.90156C12.3266 1.67188 11.975 1.91562 12.5375 1.7L12.425 1.79375C12.3266 1.80781 12.4484 1.98125 12.0922 2.24375C12.0547 2.65156 11.4125 2.46406 11.7313 2.9C11.525 2.60469 11.2156 2.89062 11.6047 2.91875C11.1875 3.2375 10.2172 3.29375 9.75312 3.82344C9.45312 4.25469 9.17656 4.11875 9.21875 3.80469ZM12.5516 5.30469C12.2328 6.07344 11.9234 5.19219 12.4859 5.05156C12.6266 5.12656 12.6828 5.15 12.5516 5.30469ZM11.3516 3.76719C11.2578 3.42031 11.3328 3.60313 11.8906 3.43906C12.275 3.71563 11.5484 3.89844 11.3516 3.76719ZM20.0797 17.525C19.6391 16.7656 20.6141 16.0625 20.9422 15.425C20.9 16.1703 20.8063 16.9062 20.0797 17.525ZM21.7391 8.84844C21.2609 8.88594 20.8297 8.99844 20.3984 8.72656C19.4047 7.63906 20.5812 9.95469 20.9094 9.00781C22.0906 9.45781 20.8906 11.3984 20.1453 11.1969C19.7281 10.2969 19.2125 9.30781 18.3031 8.86719C19.0016 9.64062 19.3484 10.5922 20.0984 11.2906C20.15 12.2656 21.1391 10.9344 21.0781 11.6891C21.1719 12.9875 19.6109 13.7656 19.8828 15.0687C20.4641 16.2547 18.7625 16.4703 18.9547 17.5344C18.2703 18.2984 17.5391 19.3297 16.3109 19.1656C16.3109 18.5188 15.9828 17.9703 15.9078 17.3047C15.2422 16.4609 16.6109 15.5562 15.7625 14.675C14.7828 14.4547 15.9641 13.1047 14.9562 13.2313C14.3516 12.6266 13.4656 13.2125 12.5984 13.2172C11.5109 13.3203 10.3906 11.8813 10.8734 10.8641C10.4891 9.80469 12.0922 9.49531 12.1344 8.5625C12.9031 7.92031 13.9953 8 15.0359 7.85C14.9609 8.59531 15.7484 8.6 16.3438 8.84844C16.6766 8.04219 17.7125 8.97969 18.4203 8.46875C18.6641 7.27812 17.7313 7.99531 17.1969 7.61563C16.55 6.66875 18.5797 7.12813 18.3688 6.63125C17.5813 6.62656 18.0266 5.66094 17.4688 6.2C17.9703 6.28906 17.3797 6.68281 17.3937 6.23281C16.6344 6.0125 17.3656 7.09531 16.9813 7.19844C16.3953 6.95469 16.6719 7.475 16.7328 7.55469C16.4797 8.10313 16.1703 6.74844 15.4531 6.78594C14.7406 6.13438 15.1719 7.08125 15.7906 7.23594C15.6594 7.27344 15.8656 7.8125 15.7016 7.58281C15.1906 6.87969 14.2203 6.41094 13.6437 7.27344C13.5828 8.07969 11.9422 8.30937 12.2047 7.36719C11.8203 6.39219 13.3953 7.33906 13.25 6.56094C12.2375 5.89062 13.5266 6.10625 13.8688 5.47812C14.6469 5.50156 13.9016 4.84062 14.2672 4.64844C14.2297 5.36562 14.8625 5.22969 15.3641 5.09375C15.2422 4.68125 15.6641 4.69531 15.4062 4.35312C16.5688 3.88906 14.5203 4.56875 14.9328 3.55156C14.4312 3.20469 14.7219 4.31563 14.9328 4.43281C14.9469 4.775 14.6562 5.19688 14.2578 4.47969C13.6766 4.85938 13.7375 4.09531 13.7 4.175C13.6344 3.87969 14.1406 3.86562 14.1453 3.35C14.1031 3.02187 14.1125 2.84844 14.3469 2.82969C14.3656 2.87656 15.3078 2.89062 15.6406 3.27969C14.7312 3.09687 15.5047 3.42969 15.9125 3.61719C15.4766 3.275 16.0859 3.61719 15.7297 3.22813C15.8703 3.25625 15.3406 2.69375 15.8844 3.18594C15.5891 2.83437 16.4609 2.9375 15.9453 2.675C16.7 2.88594 16.2547 2.69375 15.8094 2.50156C14.5813 1.77031 17.9797 3.49062 16.5922 2.72656C17.4781 2.91875 14.6984 2.04219 15.9641 2.42656C15.4812 2.21562 15.95 2.33281 16.3859 2.46875C15.6031 2.225 14.4313 1.77031 14.4781 1.75156C14.75 1.77031 15.0172 1.83125 15.275 1.90625C16.0766 2.14531 15.0453 1.85 15.2656 1.85469C18.0219 2.5625 20.4359 4.40937 21.9031 6.82344C22.2453 7.18437 23.1781 9.57031 22.6906 8.51094C22.9109 9.35469 22.9437 10.2641 23.0609 11.1266C22.8172 10.8547 22.5453 9.85156 22.3109 9.29375C22.2125 9.50938 22.1 8.98906 21.7391 8.84844Z" fill="black"/>
</g>
<defs>
<clipPath id="clip0_917_1260">
<rect width="24" height="24" fill="white" transform="translate(0.5 0.5)"/>
</clipPath>
</defs>
</svg>
