<svg width="29" height="30" viewBox="0 0 29 30" fill="none" xmlns="http://www.w3.org/2000/svg">
<path id="Vector" d="M12.8069 1.43338L0.925446 13.3149C0.709106 13.5409 0.539522 13.8073 0.426423 14.099C0.188751 14.6776 0.188751 15.3265 0.426423 15.905C0.539522 16.1967 0.709106 16.4632 0.925446 16.6892L12.8069 28.5707C13.0285 28.7922 13.2915 28.968 13.581 29.0879C13.8705 29.2078 14.1808 29.2695 14.4941 29.2695C15.1269 29.2695 15.7338 29.0181 16.1813 28.5707C16.6287 28.1232 16.8801 27.5163 16.8801 26.8835C16.8801 26.2507 16.6287 25.6438 16.1813 25.1963L8.33949 17.3783H26.3756C27.0058 17.3783 27.6102 17.128 28.0559 16.6823C28.5015 16.2367 28.7519 15.6323 28.7519 15.002C28.7519 14.3718 28.5015 13.7674 28.0559 13.3217C27.6102 12.8761 27.0058 12.6257 26.3756 12.6257H8.33949L16.1813 4.80771C16.404 4.58681 16.5808 4.32399 16.7014 4.03441C16.8221 3.74484 16.8842 3.43424 16.8842 3.12054C16.8842 2.80684 16.8221 2.49625 16.7014 2.20668C16.5808 1.9171 16.404 1.65428 16.1813 1.43338C15.9604 1.21065 15.6975 1.03386 15.408 0.913221C15.1184 0.79258 14.8078 0.730469 14.4941 0.730469C14.1804 0.730469 13.8698 0.79258 13.5802 0.913221C13.2907 1.03386 13.0278 1.21065 12.8069 1.43338Z" fill="black"/>
</svg>
